<mxfile host="app.diagrams.net" modified="2023-11-14T17:43:42.485Z" agent="Mozilla/5.0 (Windows NT 10.0; Win64; x64) AppleWebKit/537.36 (KHTML, like Gecko) Chrome/119.0.0.0 Safari/537.36" version="22.1.1" etag="jHZQpXTIidnLAlrLjFms" type="github">
  <diagram name="PÃ¡gina-1" id="Ua_1l2lXq2Gfd4AY25Pp">
    <mxGraphModel>
      <root>
        <mxCell id="0" />
        <mxCell id="1" parent="0" />
      </root>
    </mxGraphModel>
  </diagram>
</mxfile>
